<svg xmlns="http://www.w3.org/2000/svg" width="18" height="18" viewBox="0 0 533.5 544.3">
  <path fill="#4285F4" d="M533.5 278.4c0-17.4-1.5-34.1-4.3-50.4H272v95.3h146.9c-6.4 34-25 62.8-53.3 82.2l86.4 67.2c50.5-46.6 81.5-115.3 81.5-194.3z"/>
  <path fill="#34A853" d="M272 544.3c72.5 0 133.3-24 177.8-64.9l-86.4-67.2c-24 16.2-54.5 25.7-91.4 25.7-70.3 0-130-47.5-151.3-111.3H31.2v69.9C75.2 486.2 167.8 544.3 272 544.3z"/>
  <path fill="#FBBC05" d="M120.7 326.6c-10.4-30.7-10.4-63.8 0-94.5v-69.9H31.2c-39.8 78.9-39.8 171.4 0 250.3l89.5-69.9z"/>
  <path fill="#EA4335" d="M272 107.7c39.3-.6 77.2 13.7 106.2 39.8l79.3-79.3C415.3 24.5 344.6-1.6 272 0 167.8 0 75.2 58.1 31.2 146.2l89.5 69.9c21.3-63.8 81-111.3 151.3-111.3z"/>
</svg>
